<?xml version="1.0" encoding="UTF-8"?>
<svg xmlns="http://www.w3.org/2000/svg" version="1.1" width="100" height="100" viewBox="0 0 100 100"><rect x="0" y="0" width="100" height="100" fill="#ffffff"/><g transform="scale(3.448)"><g transform="translate(0,0)"><path fill-rule="evenodd" d="M8 0L8 1L10 1L10 0ZM15 0L15 1L14 1L14 2L11 2L11 4L10 4L10 3L9 3L9 2L8 2L8 5L9 5L9 6L8 6L8 7L9 7L9 8L8 8L8 10L10 10L10 9L9 9L9 8L10 8L10 7L11 7L11 8L12 8L12 7L13 7L13 9L15 9L15 10L14 10L14 11L11 11L11 13L10 13L10 12L9 12L9 11L8 11L8 12L5 12L5 14L4 14L4 17L3 17L3 12L4 12L4 11L7 11L7 10L5 10L5 9L4 9L4 8L0 8L0 9L1 9L1 10L0 10L0 11L1 11L1 13L0 13L0 14L2 14L2 16L0 16L0 17L1 17L1 18L0 18L0 19L1 19L1 18L2 18L2 20L1 20L1 21L2 21L2 20L5 20L5 19L3 19L3 18L6 18L6 19L7 19L7 18L6 18L6 17L9 17L9 16L10 16L10 15L11 15L11 14L12 14L12 16L11 16L11 17L12 17L12 18L11 18L11 19L10 19L10 18L8 18L8 19L9 19L9 21L8 21L8 22L9 22L9 23L10 23L10 22L11 22L11 23L14 23L14 22L15 22L15 21L14 21L14 20L13 20L13 18L14 18L14 17L12 17L12 16L14 16L14 15L15 15L15 16L16 16L16 17L15 17L15 19L16 19L16 20L17 20L17 21L18 21L18 22L19 22L19 23L18 23L18 24L17 24L17 26L18 26L18 29L19 29L19 28L20 28L20 29L22 29L22 26L19 26L19 25L18 25L18 24L20 24L20 25L24 25L24 26L25 26L25 25L26 25L26 26L27 26L27 25L28 25L28 27L27 27L27 29L28 29L28 27L29 27L29 25L28 25L28 24L29 24L29 23L28 23L28 22L29 22L29 21L27 21L27 18L28 18L28 15L29 15L29 13L27 13L27 12L26 12L26 11L28 11L28 12L29 12L29 11L28 11L28 10L29 10L29 8L28 8L28 10L26 10L26 11L25 11L25 13L27 13L27 14L24 14L24 12L23 12L23 13L22 13L22 12L20 12L20 11L24 11L24 10L25 10L25 9L27 9L27 8L24 8L24 10L23 10L23 9L22 9L22 8L21 8L21 6L20 6L20 5L21 5L21 4L20 4L20 3L21 3L21 2L20 2L20 3L19 3L19 4L18 4L18 3L16 3L16 1L17 1L17 2L18 2L18 1L17 1L17 0ZM19 0L19 1L21 1L21 0ZM12 3L12 5L10 5L10 6L9 6L9 7L10 7L10 6L11 6L11 7L12 7L12 5L13 5L13 7L14 7L14 5L15 5L15 9L16 9L16 8L17 8L17 7L18 7L18 8L20 8L20 6L19 6L19 5L18 5L18 6L17 6L17 4L16 4L16 3ZM13 4L13 5L14 5L14 4ZM16 6L16 7L17 7L17 6ZM18 6L18 7L19 7L19 6ZM6 8L6 9L7 9L7 8ZM2 9L2 11L3 11L3 9ZM20 9L20 10L19 10L19 11L20 11L20 10L21 10L21 9ZM16 10L16 12L12 12L12 14L13 14L13 15L14 15L14 14L15 14L15 15L17 15L17 18L16 18L16 19L19 19L19 21L20 21L20 19L21 19L21 20L22 20L22 18L24 18L24 19L23 19L23 20L26 20L26 19L25 19L25 18L26 18L26 17L27 17L27 15L24 15L24 14L23 14L23 15L22 15L22 14L20 14L20 15L19 15L19 18L18 18L18 14L19 14L19 13L20 13L20 12L18 12L18 10ZM17 12L17 14L18 14L18 12ZM6 13L6 14L5 14L5 16L8 16L8 15L6 15L6 14L7 14L7 13ZM8 13L8 14L9 14L9 15L10 15L10 14L9 14L9 13ZM13 13L13 14L14 14L14 13ZM21 15L21 16L22 16L22 15ZM23 15L23 17L25 17L25 16L24 16L24 15ZM11 19L11 20L10 20L10 21L9 21L9 22L10 22L10 21L11 21L11 22L12 22L12 21L11 21L11 20L12 20L12 19ZM6 20L6 21L7 21L7 20ZM21 21L21 24L24 24L24 21ZM16 22L16 23L15 23L15 24L14 24L14 26L13 26L13 24L12 24L12 25L10 25L10 24L9 24L9 25L8 25L8 29L9 29L9 28L10 28L10 29L11 29L11 28L12 28L12 29L13 29L13 28L12 28L12 26L13 26L13 27L14 27L14 29L15 29L15 27L14 27L14 26L16 26L16 25L15 25L15 24L16 24L16 23L17 23L17 22ZM22 22L22 23L23 23L23 22ZM26 22L26 24L27 24L27 22ZM10 26L10 27L11 27L11 26ZM16 28L16 29L17 29L17 28ZM23 28L23 29L24 29L24 28ZM25 28L25 29L26 29L26 28ZM0 0L0 7L7 7L7 0ZM1 1L1 6L6 6L6 1ZM2 2L2 5L5 5L5 2ZM22 0L22 7L29 7L29 0ZM23 1L23 6L28 6L28 1ZM24 2L24 5L27 5L27 2ZM0 22L0 29L7 29L7 22ZM1 23L1 28L6 28L6 23ZM2 24L2 27L5 27L5 24Z" fill="#000000"/></g></g></svg>
